/* XPM */
static char * missingno_xpm[] = {
"16 16 3 1",
" 	c #FF00D8",
".	c #000000",
"+	c #FFFFFF",
"      ....      ",
"    ..++++..    ",
"   .++++++++.   ",
"  .++++++++++.  ",
"  .+++...++++.  ",
"  .++..  .+++.  ",
"   ...   .+++.  ",
"        .+++..  ",
"       .+++..   ",
"      .+++..    ",
"      .++..     ",
"       ...      ",
"      ...       ",
"     .+++.      ",
"     .+++.      ",
"      ....      "};
